<svg xmlns="http://www.w3.org/2000/svg" viewBox="0 0 33.86 33.86"><defs><style>.cls-1{fill:#444;}</style></defs><g id="Layer_2" data-name="Layer 2"><g id="Layer_1-2" data-name="Layer 1"><path class="cls-1" d="M16.93,33.86A16.93,16.93,0,1,1,33.86,16.93,16.94,16.94,0,0,1,16.93,33.86ZM16.93,2A14.94,14.94,0,1,0,31.87,16.93,15,15,0,0,0,16.93,2Z"/><path class="cls-1" d="M21.91,19.05c-.25,0-.62,0-.74-.25l-3.74-4a.76.76,0,0,0-1,0L12.7,18.55a1,1,0,1,1-1.37-1.37l3.73-3.73a2.71,2.71,0,0,1,3.74,0l3.74,3.73a1,1,0,0,1,0,1.37C22.54,18.92,22.16,19.05,21.91,19.05Z"/></g></g></svg>