<svg xmlns="http://www.w3.org/2000/svg" viewBox="0 0 33.74 33.86"><defs><style>.cls-1{fill:#444;}</style></defs><g id="Layer_2" data-name="Layer 2"><g id="Layer_1-2" data-name="Layer 1"><path class="cls-1" d="M16.93,21.91a5,5,0,1,1,5-5A4.91,4.91,0,0,1,16.93,21.91Zm0-8a3,3,0,1,0,3,3A3,3,0,0,0,16.93,13.94Z"/><path class="cls-1" d="M18.3,33.86H15.69a2.36,2.36,0,0,1-2.37-2.36v-2a19.16,19.16,0,0,1-2.36-1h-.38L9.21,29.88a2.78,2.78,0,0,1-3.36,0l-2-2a2.26,2.26,0,0,1,0-3.36l1.37-1.37c.25-.25,0-.38,0-.38a6.75,6.75,0,0,1-.75-2c0-.25-.25-.25-.37-.25H2.37A2.36,2.36,0,0,1,0,18.18V15.56A2.37,2.37,0,0,1,2.37,13.2H4.11c.25,0,.25-.25.37-.25.25-.75.62-1.37.75-2v-.38L3.86,9.21a2.26,2.26,0,0,1,0-3.36l2-2a2.78,2.78,0,0,1,3.36,0l1.37,1.37c.25.25.25.25.38,0a6.75,6.75,0,0,1,2-.75c.25,0,.25-.25.25-.37V2.37A2.36,2.36,0,0,1,15.56,0h2.62a2.37,2.37,0,0,1,2.36,2.37V4.11c0,.25.25.25.25.37a13.44,13.44,0,0,0,2,.75h.38l1.37-1.37a2.78,2.78,0,0,1,3.36,0l2,2a2.26,2.26,0,0,1,0,3.36l-1.37,1.37c-.25.25,0,.38,0,.38a6.75,6.75,0,0,1,.75,2c0,.25.25.25.37.25h1.74a2.36,2.36,0,0,1,2.37,2.36v2.62a2.37,2.37,0,0,1-2.37,2.36H29.63c-.25,0-.25.25-.37.25-.25.75-.62,1.37-.75,2v.38l1.37,1.37a2.26,2.26,0,0,1,0,3.36l-2,2a2.78,2.78,0,0,1-3.36,0l-1.37-1.37c-.25-.25-.25-.25-.38,0a6.75,6.75,0,0,1-2,.75c-.25,0-.25.25-.25.37v1.74A2.29,2.29,0,0,1,18.3,33.86Zm-7.47-7.47a2.46,2.46,0,0,1,1.25.25,15.53,15.53,0,0,0,2.61,1c.37.25.75.62.75,1v2.73a.4.4,0,0,0,.37.38h2.62a.39.39,0,0,0,.37-.38V29.63a2.28,2.28,0,0,1,1.62-2.24,7.2,7.2,0,0,0,1.74-.75A2.44,2.44,0,0,1,24.9,27l1.37,1.37c.25.25.37.25.37,0l2-2c.24-.24.24-.37,0-.37l-1.37-1.37a2.44,2.44,0,0,1-.38-2.74,16.59,16.59,0,0,0,.75-1.74,2.38,2.38,0,0,1,2.24-1.62h1.74a.4.4,0,0,0,.38-.37V15.56a.39.39,0,0,0-.38-.37H29.88a2.27,2.27,0,0,1-2.24-1.62,7.2,7.2,0,0,0-.75-1.74,2.44,2.44,0,0,1,.38-2.74l1.37-1.37c.24-.25.24-.37,0-.37l-2-2c-.25-.25-.37-.25-.37,0L24.9,6.72a2.68,2.68,0,0,1-2.74.38,16.59,16.59,0,0,0-1.74-.75A2.39,2.39,0,0,1,18.8,4.11V2.37A.4.4,0,0,0,18.43,2H15.81a.39.39,0,0,0-.37.38V4.11a2.28,2.28,0,0,1-1.62,2.24,7,7,0,0,0-1.74.75,2.44,2.44,0,0,1-2.74-.38L8,5.35c-.25-.25-.38-.25-.38,0l-2,2c-.25.24-.25.37,0,.37L7,9.09a2.44,2.44,0,0,1,.38,2.74,16.59,16.59,0,0,0-.75,1.74,2.39,2.39,0,0,1-2.24,1.62H2.61a.4.4,0,0,0-.37.37v2.62a.39.39,0,0,0,.37.37H4.36A2.28,2.28,0,0,1,6.6,20.17a7.2,7.2,0,0,0,.75,1.74A2.44,2.44,0,0,1,7,24.65L5.6,26c-.25.25-.25.37,0,.37l2,2c.25.25.38.25.38,0L9.34,27A1.85,1.85,0,0,1,10.83,26.39Z"/></g></g></svg>