<svg xmlns="http://www.w3.org/2000/svg" viewBox="0 0 33.86 33.86"><defs><style>.cls-1{fill:#444;}</style></defs><g id="Layer_2" data-name="Layer 2"><g id="Layer_1-2" data-name="Layer 1"><path class="cls-1" d="M16.93,33.86A16.93,16.93,0,1,1,33.86,16.93,16.94,16.94,0,0,1,16.93,33.86ZM16.93,2A14.94,14.94,0,1,0,31.87,16.93,15,15,0,0,0,16.93,2Z"/><path class="cls-1" d="M20.92,17.93H18.18a2.23,2.23,0,0,1-2.24-2.24V9a.91.91,0,0,1,1-1,.92.92,0,0,1,1,1v6.73a.24.24,0,0,0,.25.25h2.74a.91.91,0,0,1,1,1A.92.92,0,0,1,20.92,17.93Z"/><path class="cls-1" d="M16.93,6a.92.92,0,0,1-1-1V2a.91.91,0,0,1,1-1,.92.92,0,0,1,1,1V5A.92.92,0,0,1,16.93,6Z"/><path class="cls-1" d="M31.87,17.93h-3a.92.92,0,0,1-1-1,.91.91,0,0,1,1-1h3a1,1,0,1,1,0,2Z"/><path class="cls-1" d="M5,17.93H2a.92.92,0,0,1-1-1,.91.91,0,0,1,1-1H5a1,1,0,1,1,0,2Z"/><path class="cls-1" d="M16.93,32.87a.91.91,0,0,1-1-1v-3a.91.91,0,0,1,1-1,.92.92,0,0,1,1,1v3A.92.92,0,0,1,16.93,32.87Z"/></g></g></svg>