<svg xmlns="http://www.w3.org/2000/svg" viewBox="0 0 25.9 33.86"><defs><style>.cls-1{fill:#444;}</style></defs><g id="Layer_2" data-name="Layer 2"><g id="Layer_1-2" data-name="Layer 1"><path class="cls-1" d="M20.92,33.86H5a5,5,0,0,1-5-5V5A5,5,0,0,1,5,0H12.2a4.71,4.71,0,0,1,2.24.75l10.71,10.7a2.93,2.93,0,0,1,.75,2.25V28.88A4.92,4.92,0,0,1,20.92,33.86ZM5,2A3,3,0,0,0,2,5v23.9a3,3,0,0,0,3,3H20.92a3,3,0,0,0,3-3V13.7c0-.25-.24-.63-.24-.75L13,2.24C12.7,2,12.58,2,12.2,2Z"/><path class="cls-1" d="M24.9,13.94h-8a5,5,0,0,1-5-5V1a.92.92,0,0,1,1-1,.91.91,0,0,1,1,1V9a3,3,0,0,0,3,3h8a.92.92,0,0,1,1,1A.92.92,0,0,1,24.9,13.94Z"/><path class="cls-1" d="M15.94,26.64c-.25,0-.63,0-.75-.25l-6-6a1,1,0,1,1,1.37-1.37l6,6a1,1,0,0,1,0,1.36C16.56,26.52,16.19,26.64,15.94,26.64Z"/><path class="cls-1" d="M10,26.64c-.25,0-.62,0-.75-.25a1,1,0,0,1,0-1.36l6-6a1,1,0,1,1,1.37,1.37l-6,6C10.58,26.52,10.21,26.64,10,26.64Z"/></g></g></svg>