<svg xmlns="http://www.w3.org/2000/svg" viewBox="0 0 33.86 31.87"><defs><style>.cls-1{fill:#444;}</style></defs><g id="Layer_2" data-name="Layer 2"><g id="Layer_1-2" data-name="Layer 1"><path class="cls-1" d="M28.88,31.87H5a5,5,0,0,1-5-5V11A5,5,0,0,1,5,6h23.9a5,5,0,0,1,5,5V26.89A4.91,4.91,0,0,1,28.88,31.87ZM5,8a3,3,0,0,0-3,3V26.89a3,3,0,0,0,3,3h23.9a3,3,0,0,0,3-3V11a3,3,0,0,0-3-3Z"/><rect class="cls-1" x="1" y="15.94" width="31.87" height="1.99"/><path class="cls-1" d="M11,19.92a.92.92,0,0,1-1-1v-4a.92.92,0,0,1,1-1,.92.92,0,0,1,1,1v4A.91.91,0,0,1,11,19.92Z"/><path class="cls-1" d="M22.91,19.92a.92.92,0,0,1-1-1v-4a1,1,0,1,1,2,0v4A.91.91,0,0,1,22.91,19.92Z"/><path class="cls-1" d="M10,7V3.61A3.61,3.61,0,0,1,13.57,0h7a3.61,3.61,0,0,1,3.61,3.61V7h-2V3.61A1.64,1.64,0,0,0,20.54,2h-7A1.64,1.64,0,0,0,12,3.61V7Z"/></g></g></svg>